<svg width="73" height="73" viewBox="0 0 73 73" fill="none" xmlns="http://www.w3.org/2000/svg">
<g id="icn settings .icn-xl" clip-path="url(#clip0_964_17595)">
<path id="Vector" d="M56.929 39.4947C56.5775 39.1426 56.16 38.8632 55.7004 38.6726C55.2408 38.482 54.7482 38.3839 54.2506 38.3839C53.7531 38.3839 53.2604 38.482 52.8008 38.6726C52.3413 38.8632 51.9238 39.1426 51.5722 39.4947L45.5335 45.5334C42.7339 44.6999 37.5097 42.8057 34.1987 39.4947C30.8876 36.1836 28.9934 30.9594 28.16 28.1598L34.1987 22.1211C34.5508 21.7696 34.8301 21.3521 35.0207 20.8925C35.2113 20.4329 35.3094 19.9403 35.3094 19.4427C35.3094 18.9452 35.2113 18.4525 35.0207 17.9929C34.8301 17.5333 34.5508 17.1159 34.1987 16.7643L19.0451 1.61076C18.6936 1.25865 18.2761 0.979298 17.8165 0.788701C17.3569 0.598105 16.8642 0.5 16.3667 0.5C15.8692 0.5 15.3765 0.598105 14.9169 0.788701C14.4573 0.979298 14.0398 1.25865 13.6883 1.61076L3.41418 11.8849C1.97459 13.3245 1.16387 15.302 1.19418 17.3212C1.28131 22.7159 2.70954 41.4533 17.4767 56.2204C32.2439 70.9876 50.9813 72.412 56.3797 72.503H56.4858C58.4861 72.503 60.3765 71.715 61.8085 70.283L72.0826 60.0088C72.4347 59.6573 72.7141 59.2398 72.9047 58.7802C73.0953 58.3207 73.1934 57.828 73.1934 57.3304C73.1934 56.8329 73.0953 56.3402 72.9047 55.8807C72.7141 55.4211 72.4347 55.0036 72.0826 54.6521L56.929 39.4947ZM56.4479 64.9224C51.72 64.8428 35.5435 63.5737 22.8335 50.8599C10.0818 38.1081 8.84673 21.8749 8.77097 17.2417L16.3667 9.64594L26.1635 19.4427L21.2651 24.3411C20.8198 24.7861 20.4924 25.335 20.3125 25.9382C20.1326 26.5414 20.1058 27.18 20.2346 27.7961C20.3256 28.2318 22.5494 38.5627 28.8381 44.8515C35.1268 51.1402 45.4578 53.364 45.8934 53.4549C46.5092 53.5874 47.1484 53.5627 47.7522 53.3833C48.356 53.2039 48.9049 52.8755 49.3485 52.4283L54.2506 47.5299L64.0474 57.3267L56.4479 64.9224V64.9224Z" fill="#0D5C63"/>
</g>
<defs>
<clipPath id="clip0_964_17595">
<rect width="72" height="72" fill="white" transform="translate(0.5 0.5)"/>
</clipPath>
</defs>
</svg>
